<svg width="29" height="28" viewBox="0 0 29 28" fill="none" xmlns="http://www.w3.org/2000/svg">
<g id="arrow_left_outline_28 @ back">
<path id="&#226;&#134;&#179; Icon Color" d="M13.0429 6.29289C13.4334 5.90237 14.0666 5.90237 14.4571 6.29289C14.8476 6.68342 14.8476 7.31658 14.4571 7.70711L9.164 13H22.75C23.2628 13 23.6855 13.386 23.7433 13.8834L23.75 14C23.75 14.5523 23.3023 15 22.75 15H9.164L14.4571 20.2929C14.8176 20.6534 14.8453 21.2206 14.5403 21.6129L14.4571 21.7071C14.0666 22.0976 13.4334 22.0976 13.0429 21.7071L6.04289 14.7071L5.96969 14.6254C5.96737 14.6226 5.96507 14.6197 5.96279 14.6167C5.95728 14.6098 5.95175 14.6026 5.94633 14.5953C5.92849 14.5711 5.91172 14.5463 5.89607 14.5207C5.88861 14.5086 5.8815 14.4964 5.87467 14.4841C5.86379 14.4643 5.85338 14.4439 5.84365 14.4231C5.83568 14.4061 5.8282 14.3888 5.82123 14.3713C5.81332 14.3516 5.80612 14.3318 5.79955 14.3117C5.79473 14.2969 5.7901 14.2815 5.78585 14.266C5.77983 14.2444 5.77464 14.2227 5.77016 14.2008C5.7667 14.1834 5.76363 14.1659 5.76102 14.1485C5.75376 14.1004 5.75 14.0506 5.75 14L5.75397 14.0893C5.75189 14.066 5.75063 14.0427 5.75019 14.0194L5.75 14C5.75 13.9936 5.75006 13.9872 5.75018 13.9808C5.7506 13.958 5.75187 13.9343 5.75397 13.9107C5.75577 13.8902 5.75811 13.8705 5.76102 13.851C5.76363 13.8341 5.7667 13.8166 5.77024 13.7993C5.77464 13.7773 5.77983 13.7556 5.78572 13.7342C5.7901 13.7185 5.79473 13.7031 5.79974 13.6879C5.80612 13.6682 5.81332 13.6484 5.8211 13.6289C5.8282 13.6112 5.83568 13.5939 5.84367 13.5768C5.85338 13.5561 5.86379 13.5357 5.87488 13.5157C5.8815 13.5036 5.88861 13.4914 5.896 13.4793C5.91172 13.4537 5.92849 13.4289 5.94631 13.4048C5.97531 13.3657 6.0075 13.3283 6.04289 13.2929L5.96279 13.3833C5.98767 13.3515 6.01443 13.3214 6.04289 13.2929L13.0429 6.29289Z" fill="#3FB8B1"/>
</g>
</svg>
